<svg xmlns="http://www.w3.org/2000/svg" viewBox="0 0 383.56 144.56"><defs><style>.cls-1{fill:#feffff;}</style></defs><g id="Layer_2" data-name="Layer 2"><g id="Layer_1-2" data-name="Layer 1"><rect class="cls-1" width="383.56" height="144.56"/><path d="M56,42.77C42.67,50,37.69,70.77,46.3,83.3c4.38,6.38,11.41,8.73,18.81,6.3C76.23,86,83.59,75.05,83.61,62.17,83.65,45.53,69.41,35.52,56,42.77ZM59.5,69.6a2.55,2.55,0,0,1-4-.79,9.33,9.33,0,0,1-1.25-5.47,14.63,14.63,0,0,1,2.83-7.85,13.19,13.19,0,0,1,6.57-5.11,7.8,7.8,0,0,1,5.07-.14,1.57,1.57,0,0,1,.23.09s0,0,.09.07a8.4,8.4,0,0,0-2.37,1.44,10.67,10.67,0,0,0-3,4.63,16.41,16.41,0,0,0-.87,4.66,14.94,14.94,0,0,1-1.4,6A6.74,6.74,0,0,1,59.5,69.6ZM75.2,59.32a14.84,14.84,0,0,1-3,7.65,13.6,13.6,0,0,1-5,4.25,8.68,8.68,0,0,1-6.06.83l-.51-.16s0,0,0,0a6.42,6.42,0,0,0,2-1.22,9.73,9.73,0,0,0,2.47-4.12,19.18,19.18,0,0,0,1-5.43,12.42,12.42,0,0,1,1.54-5.58,7.77,7.77,0,0,1,3-3.11,2.48,2.48,0,0,1,3.44,1A9.78,9.78,0,0,1,75.2,59.32Z"/><path d="M140.85,51c-5.5-8.53-14.29-12.25-22.57-9.91s-13.7,10.54-13.73,23.36a27.58,27.58,0,0,0,14.27,23.26c10.55,6.1,21.69,1.91,25.69-9.6C147.86,68.51,146.26,59.45,140.85,51ZM127.62,70.87a4.74,4.74,0,0,1-.5.15,8.69,8.69,0,0,1-6.07-.82,13.56,13.56,0,0,1-5-4.25,14.94,14.94,0,0,1-3-7.65,9.85,9.85,0,0,1,1.21-6,2.47,2.47,0,0,1,3.43-1,7.7,7.7,0,0,1,3,3.11,12.43,12.43,0,0,1,1.55,5.58,19.29,19.29,0,0,0,1,5.43,9.86,9.86,0,0,0,2.48,4.12,6.45,6.45,0,0,0,2,1.22S127.64,70.87,127.62,70.87Zm4.94-3.82a2.55,2.55,0,0,1-4,.8,6.7,6.7,0,0,1-1.91-2.47,15,15,0,0,1-1.4-6,16.28,16.28,0,0,0-.87-4.65,10.61,10.61,0,0,0-3-4.64A8.15,8.15,0,0,0,119,48.65s.06-.06.09-.07l.23-.1a7.86,7.86,0,0,1,5.07.14A13.19,13.19,0,0,1,131,53.73a14.66,14.66,0,0,1,2.83,7.85A9.25,9.25,0,0,1,132.56,67.05Z"/><path d="M105.94,87.09c-.2-1.55-2.06-4-3.34-4.1A86.14,86.14,0,0,0,87,83c-1.31.11-3.24,2.49-3.45,4-.46,3.37,4.4,8.79,8.53,10.75V106a1.31,1.31,0,0,0,1.3,1.31H96.1A1.31,1.31,0,0,0,97.41,106V97.77C101.48,95.86,106.36,90.4,105.94,87.09Z"/><path d="M178.52,44.37c0-.84.13-1.68.21-2.49a.65.65,0,0,1,.86-.56,40.59,40.59,0,0,1,5.79,2,6.57,6.57,0,0,1,4.22,6.28,8.5,8.5,0,0,1-.56,3.15,15.69,15.69,0,0,1-3.38,5.08A13.87,13.87,0,0,1,184,59.31a7.12,7.12,0,0,0-2.88,3.12c-.25.64-1.44.64-1.9.1a5.64,5.64,0,0,1-.64-.86,8.07,8.07,0,0,1-.68-3.18c0-1.32,0-2.64.05-4.47C178.06,51.12,178.32,47.75,178.52,44.37Zm1.7,13a2.56,2.56,0,0,0,.36,1c.13.17.69.07,1-.21,1.09-1,2.21-1.88,3.23-3a10.42,10.42,0,0,0,2.28-3.68,4.86,4.86,0,0,0,.31-1.55,4.29,4.29,0,0,0-2.13-3.81,13.81,13.81,0,0,0-3.64-1.65.68.68,0,0,0-.81.53c-.23,3.48-.48,7.12-.59,10.52A7.74,7.74,0,0,0,180.22,57.32Z"/><path d="M201.77,43.35a5.88,5.88,0,0,1-1.65.66,14.87,14.87,0,0,0-3.48,1,1.47,1.47,0,0,0-.74.71,7.22,7.22,0,0,0-.05,3.94.62.62,0,0,0,.54.41c.71,0,1.42-.13,2.13-.2a7.84,7.84,0,0,1,1.45-.08.7.7,0,0,1,.51.38.74.74,0,0,1-.1.69,3.66,3.66,0,0,1-1.78,1.19c-.79.31-1.65.48-2.47.71s-1.09.59-1.09,1.6c0,.84,0,1.7.1,2.54a2.42,2.42,0,0,0,.89,1.53,1.39,1.39,0,0,0,1.35.33,5.59,5.59,0,0,0,3.17-2.31c.18-.33.56-.94,1-1a.72.72,0,0,1,.55.25,2.08,2.08,0,0,1-.12,2.31,7.32,7.32,0,0,1-4.55,3.41,3.19,3.19,0,0,1-1.07,0,3.77,3.77,0,0,1-3.53-3.56,46.57,46.57,0,0,1-.2-4.72,3.79,3.79,0,0,0-.59-2,1.26,1.26,0,0,1,.13-1.68c1.24-1.14,1.09-2.59.91-4a6,6,0,0,0-.2-.69c-.23-1.12.1-1.7,1.09-1.9l2.49-.49c1.3-.25,2.62-.5,3.92-.68a1.69,1.69,0,0,1,1,.23,1.12,1.12,0,0,1,.63.73A.62.62,0,0,1,201.77,43.35Z"/><path d="M206.71,46a7.56,7.56,0,0,1,2.11-2.49,2,2,0,0,1,1.32-.38,2.34,2.34,0,0,1,1.65.73,1,1,0,0,1,.23.89.82.82,0,0,1-.84.66,2,2,0,0,0-1.81,1.09,15.5,15.5,0,0,0-2.49,7.91,14.25,14.25,0,0,0,.08,1.45,3.18,3.18,0,0,0,1.8,2.59,3,3,0,0,0,1.48.38,7.16,7.16,0,0,0,3.28-1.27c.83-.51,1.67-1,2.51-1.45a.63.63,0,0,1,.64.05.66.66,0,0,1,.12.61,9.21,9.21,0,0,1-1.42,1.91,8.63,8.63,0,0,1-5.59,2.61,5.12,5.12,0,0,1-4.7-3,9.68,9.68,0,0,1-.76-4.26A17.61,17.61,0,0,1,206.71,46Z"/><path d="M218.4,54.81c1-3.25,2.06-6.48,3.1-9.71a7,7,0,0,1,.78-1.65,1.09,1.09,0,0,1,1.3-.18,4,4,0,0,1,.71.84,23.17,23.17,0,0,0,1.58,3.25,1.56,1.56,0,0,1,.23,1,12.71,12.71,0,0,0,.38,4c.35,2.38.76,4.8,1.12,7.21a4.21,4.21,0,0,1,0,.71,1.09,1.09,0,0,1-.59.82,1.45,1.45,0,0,1-1-.23,1.84,1.84,0,0,1-.63-.87,15,15,0,0,1-.71-2.08.69.69,0,0,0-.54-.48,9.87,9.87,0,0,0-3.55.58,1.22,1.22,0,0,0-.66.79c-.31.91-.54,1.88-.82,2.79a1.2,1.2,0,0,1-.4.59,1.25,1.25,0,0,1-.64.3,1.13,1.13,0,0,1-.94-1,7.93,7.93,0,0,1,.05-1.65A37.91,37.91,0,0,1,218.4,54.81Zm5-4.24c-.1-.36-.43-.28-.58,0a12,12,0,0,0-1.47,4c-.11.56.35.64.68.66a4.64,4.64,0,0,0,1.4,0c.28-.07.71-.25.69-.61A20.37,20.37,0,0,0,223.45,50.57Z"/><path d="M239.34,51.91a1.6,1.6,0,0,1,1.65.59.61.61,0,0,1,0,.66,1.08,1.08,0,0,1-.48.51,21.34,21.34,0,0,1-2.39.86c-.69.2-1.42.33-2.14.48a2,2,0,0,0-1.8,2c-.08,1-.15,1.94-.25,2.9a2.52,2.52,0,0,1-.26,1.07,1.55,1.55,0,0,1-.79.68,1.27,1.27,0,0,1-1.19-.53,2.86,2.86,0,0,1-.41-1c-.07-.59-.07-1.22-.1-1.81a6.85,6.85,0,0,0-.79-3.5,1.33,1.33,0,0,1,.05-1.4,4,4,0,0,0,.61-2.44c0-1.93,0-3.89,0-5.82,0-1.14.28-1.55,1.37-1.75a2.6,2.6,0,0,0,1.63-.69,6.19,6.19,0,0,1,2.08-1.47,2.62,2.62,0,0,1,3,.64,1.93,1.93,0,0,1,.25,2.36.94.94,0,0,1-1.5.3c-.17-.15-.3-.38-.48-.53a1,1,0,0,0-1.29.1,3.66,3.66,0,0,0-1,1.88,20.68,20.68,0,0,0-.23,5.82c0,.18.31.41.49.48a1.43,1.43,0,0,0,.86.1C237.15,52.24,238.24,52,239.34,51.91Z"/><path d="M251.82,51.91a1.6,1.6,0,0,1,1.65.59.63.63,0,0,1,.05.66,1.08,1.08,0,0,1-.48.51,21.34,21.34,0,0,1-2.39.86c-.69.2-1.43.33-2.14.48a2,2,0,0,0-1.8,2c-.08,1-.15,1.94-.26,2.9A2.37,2.37,0,0,1,246.2,61a1.55,1.55,0,0,1-.79.68,1.27,1.27,0,0,1-1.19-.53,2.86,2.86,0,0,1-.41-1c-.07-.59-.07-1.22-.1-1.81a6.85,6.85,0,0,0-.79-3.5,1.33,1.33,0,0,1,.05-1.4,4,4,0,0,0,.61-2.44c0-1.93,0-3.89,0-5.82,0-1.14.28-1.55,1.37-1.75a2.63,2.63,0,0,0,1.63-.69,6.19,6.19,0,0,1,2.08-1.47,2.62,2.62,0,0,1,3,.64,1.93,1.93,0,0,1,.25,2.36.94.94,0,0,1-1.5.3c-.17-.15-.3-.38-.48-.53a1,1,0,0,0-1.3.1,3.72,3.72,0,0,0-1,1.88,20.31,20.31,0,0,0-.23,5.82c0,.18.31.41.49.48a1.43,1.43,0,0,0,.86.1C249.63,52.24,250.72,52,251.82,51.91Z"/><path d="M265.24,43.35a6.06,6.06,0,0,1-1.66.66,14.87,14.87,0,0,0-3.48,1,1.41,1.41,0,0,0-.73.71,7.13,7.13,0,0,0-.06,3.94.62.62,0,0,0,.54.41c.71,0,1.42-.13,2.13-.2a7.84,7.84,0,0,1,1.45-.08.7.7,0,0,1,.51.38.69.69,0,0,1-.1.69,3.66,3.66,0,0,1-1.78,1.19c-.79.31-1.65.48-2.47.71s-1.09.59-1.09,1.6c0,.84,0,1.7.1,2.54a2.42,2.42,0,0,0,.89,1.53,1.39,1.39,0,0,0,1.35.33A5.64,5.64,0,0,0,264,56.49c.17-.33.55-.94,1-1a.76.76,0,0,1,.56.25,2.09,2.09,0,0,1-.13,2.31,7.32,7.32,0,0,1-4.55,3.41,3.19,3.19,0,0,1-1.07,0,3.78,3.78,0,0,1-3.53-3.56,46.57,46.57,0,0,1-.2-4.72,3.79,3.79,0,0,0-.59-2,1.26,1.26,0,0,1,.13-1.68c1.25-1.14,1.09-2.59.92-4,0-.23-.16-.46-.21-.69-.23-1.12.1-1.7,1.09-1.9l2.49-.49c1.3-.25,2.62-.5,3.92-.68a1.69,1.69,0,0,1,1,.23,1.12,1.12,0,0,1,.63.73A.62.62,0,0,1,265.24,43.35Z"/><path d="M268.31,44.52a3.81,3.81,0,0,1,.18-1.07,1.31,1.31,0,0,1,1.22-.76,1.45,1.45,0,0,1,1,.91,2.59,2.59,0,0,1,.07,1.07,51,51,0,0,0-.28,9.81,16.67,16.67,0,0,0,1,5.33,1.32,1.32,0,0,1,0,1.28.71.71,0,0,1-.69.27,1.48,1.48,0,0,1-.66-.22,2.43,2.43,0,0,1-.71-.82,10.78,10.78,0,0,1-1.12-4.16c-.12-2-.23-3.89-.2-5.24C268.21,48.38,268.24,46.45,268.31,44.52Z"/><path d="M275.55,44.85a1.18,1.18,0,0,1,1.58-.33,4.25,4.25,0,0,1,1,1.07c.86,1.6,1.72,3.2,2.54,4.82a38.88,38.88,0,0,0,2.66,4.75.69.69,0,0,0,.59.28.72.72,0,0,0,.53-.43,6.34,6.34,0,0,0,.48-1.73c.26-2.41.36-4.82.49-7.26.07-1.1.05-2.19.1-3.28a1,1,0,0,1,1-.86,1.53,1.53,0,0,1,1.09.81,7.69,7.69,0,0,1,.23,1.45A47.57,47.57,0,0,1,287,55a11.4,11.4,0,0,1-.79,2.8,3.51,3.51,0,0,1-.58.91,1.65,1.65,0,0,1-1.71.36,6,6,0,0,1-2.16-1.86c-.71-1-1.37-2-2-3.1-.49-.81-1-1.6-1.45-2.49-.1-.2-.59-.15-.59.08-.12.58-.25,1.14-.33,1.78-.25,2.18-.53,4.32-.86,6.48a2,2,0,0,1-.46.94.85.85,0,0,1-1,.23,1.34,1.34,0,0,1-.56-.41,1.38,1.38,0,0,1-.23-.69c0-1,0-1.93,0-2.89.05-1.58.2-3.18.3-4.75.16-2.06.28-4.1.59-6.15A5.93,5.93,0,0,1,275.55,44.85Z"/><path d="M291.8,54.81c1-3.25,2.05-6.48,3.09-9.71a7.39,7.39,0,0,1,.79-1.65,1.09,1.09,0,0,1,1.3-.18,4,4,0,0,1,.71.84,24.27,24.27,0,0,0,1.57,3.25,1.5,1.5,0,0,1,.23,1,13.33,13.33,0,0,0,.38,4c.36,2.38.77,4.8,1.12,7.21a2.81,2.81,0,0,1,0,.71,1.07,1.07,0,0,1-.58.82,1.45,1.45,0,0,1-1-.23,1.77,1.77,0,0,1-.63-.87,15,15,0,0,1-.71-2.08.7.7,0,0,0-.54-.48,10,10,0,0,0-3.56.58,1.25,1.25,0,0,0-.66.79c-.3.91-.53,1.88-.81,2.79a1.16,1.16,0,0,1-.41.59,1.18,1.18,0,0,1-.63.3,1.13,1.13,0,0,1-.94-1,7.29,7.29,0,0,1,.05-1.65A36.46,36.46,0,0,1,291.8,54.81Zm5.05-4.24c-.1-.36-.43-.28-.58,0a12.21,12.21,0,0,0-1.48,4c-.1.56.36.64.69.66a4.65,4.65,0,0,0,1.4,0c.28-.07.71-.25.68-.61A19.66,19.66,0,0,0,296.85,50.57Z"/><path d="M316.14,43.53a.6.6,0,0,1,.43.45.71.71,0,0,1-.25.61,5.23,5.23,0,0,1-1.65.64c-4.07.48-3.77.66-4,4.5a67.75,67.75,0,0,0,.15,9.12,7.16,7.16,0,0,1-.1,2.16,1.29,1.29,0,0,1-1.07.74,1.06,1.06,0,0,1-.84-.61,11.34,11.34,0,0,1-.79-3.89,57.73,57.73,0,0,1,.21-9.84c.1-.68-.38-1.06-1.12-1s-1.68.13-2.54.21a14.21,14.21,0,0,1-1.45.07,2.1,2.1,0,0,1-.69-.2,1.38,1.38,0,0,1-.81-1.14,1.3,1.3,0,0,1,.89-1.05c.36,0,.71-.1,1.07-.12,1.09-.13,2.18-.21,3.27-.36s2.09-.63,3.16-.71a15,15,0,0,1,2.66.23C314.23,43.37,315.2,43.43,316.14,43.53Z"/><path d="M327.73,43.35a6.13,6.13,0,0,1-1.65.66,14.72,14.72,0,0,0-3.48,1,1.43,1.43,0,0,0-.74.71,7.13,7.13,0,0,0-.05,3.94.6.6,0,0,0,.53.41c.71,0,1.43-.13,2.14-.2a7.73,7.73,0,0,1,1.44-.08.65.65,0,0,1,.41,1.07,3.66,3.66,0,0,1-1.78,1.19c-.78.31-1.65.48-2.46.71s-1.09.59-1.09,1.6c0,.84,0,1.7.1,2.54a2.34,2.34,0,0,0,.89,1.53,1.37,1.37,0,0,0,1.34.33,5.64,5.64,0,0,0,3.18-2.31c.18-.33.56-.94,1-1a.76.76,0,0,1,.56.25,2.09,2.09,0,0,1-.13,2.31,7.32,7.32,0,0,1-4.55,3.41,3.14,3.14,0,0,1-1.06,0,3.79,3.79,0,0,1-3.54-3.56c-.17-1.57-.17-3.15-.2-4.72a3.78,3.78,0,0,0-.58-2,1.25,1.25,0,0,1,.12-1.68c1.25-1.14,1.1-2.59.92-4,0-.23-.15-.46-.2-.69-.23-1.12.1-1.7,1.09-1.9l2.49-.49c1.29-.25,2.62-.5,3.91-.68a1.68,1.68,0,0,1,1,.23,1.13,1.13,0,0,1,.64.73A.62.62,0,0,1,327.73,43.35Z"/><path d="M331.21,44.37c.05-.84.13-1.68.21-2.49a.65.65,0,0,1,.86-.56,40.59,40.59,0,0,1,5.79,2,6.57,6.57,0,0,1,4.22,6.28,8.5,8.5,0,0,1-.56,3.15,15.53,15.53,0,0,1-3.38,5.08,13.87,13.87,0,0,1-1.62,1.45,7,7,0,0,0-2.87,3.12c-.26.64-1.45.64-1.91.1a5.64,5.64,0,0,1-.64-.86,8.07,8.07,0,0,1-.68-3.18c0-1.32,0-2.64.05-4.47C330.75,51.12,331,47.75,331.21,44.37Zm1.71,13a2.4,2.4,0,0,0,.35,1c.13.17.69.07,1-.21,1.09-1,2.21-1.88,3.23-3a10.59,10.59,0,0,0,2.29-3.68,4.83,4.83,0,0,0,.3-1.55A4.29,4.29,0,0,0,338,46.12a13.81,13.81,0,0,0-3.64-1.65.68.68,0,0,0-.81.53c-.23,3.48-.48,7.12-.58,10.52A6.78,6.78,0,0,0,332.92,57.32Z"/><path d="M171,73.15H189.5c8.1,0,12.46,5.4,12.46,11.89S197.6,96.67,189.5,96.67h-8v11.11H171Zm17.13,8.72h-6.64V88h6.64a3,3,0,1,0,0-6.08Z"/><path d="M224,103.31H210.74l-1.35,4.47H198l12.77-34.63H224l12.77,34.63H225.38Zm-10.59-8.72h7.89l-4-12.2Z"/><path d="M249.11,89.19v18.59H238.62V73.15h10.8l12,17.44V73.15H272v34.63H261.88Z"/><path d="M277.56,73.15H293c10.91,0,19,6.23,19,17.29s-8.1,17.34-19,17.34H277.56ZM293,98.64a8,8,0,0,0,8.36-8.2c0-4.67-2.7-8.15-8.3-8.15h-5V98.64Z"/><path d="M336.49,103.31H323.2l-1.35,4.47H310.48l12.77-34.63h13.19l12.77,34.63H337.84ZM325.9,94.59h7.89l-3.94-12.2Z"/></g></g></svg>