<?xml version="1.0" encoding="utf-8"?>
<!-- Generator: Adobe Illustrator 24.3.0, SVG Export Plug-In . SVG Version: 6.00 Build 0)  -->
<svg version="1.1" id="Layer_1" xmlns="http://www.w3.org/2000/svg" xmlns:xlink="http://www.w3.org/1999/xlink" x="0px" y="0px"
	 viewBox="0 0 383.6 144.6" style="enable-background:new 0 0 383.6 144.6;" xml:space="preserve">
<style type="text/css">
	.st0{fill:#FEFFFF;}
</style>
<rect class="st0" width="383.6" height="144.6"/>
<path d="M56,42.8c-13.3,7.2-18.3,28-9.7,40.5c4.4,6.4,11.4,8.7,18.8,6.3C76.2,86,83.6,75.1,83.6,62.2C83.7,45.5,69.4,35.5,56,42.8z
	 M59.5,69.6c-1,0.9-2.7,0.9-3.6-0.2c-0.2-0.2-0.3-0.4-0.4-0.6c-1-1.7-1.4-3.6-1.2-5.5c0.2-2.8,1.1-5.6,2.8-7.8
	c1.6-2.4,3.9-4.2,6.6-5.1c1.6-0.6,3.4-0.7,5.1-0.1c0.1,0,0.2,0.1,0.2,0.1c0,0,0,0,0.1,0.1c-0.9,0.3-1.7,0.8-2.4,1.4
	c-1.4,1.3-2.4,2.9-3,4.6c-0.5,1.5-0.8,3.1-0.9,4.7c0,2.1-0.5,4.1-1.4,6C61,68.1,60.3,68.9,59.5,69.6z M75.2,59.3
	c-0.3,2.8-1.3,5.4-3,7.7c-1.3,1.8-3,3.3-5,4.2c-1.9,1-4,1.3-6.1,0.8l-0.5-0.2l0,0c0.7-0.3,1.4-0.7,2-1.2c1.2-1.1,2-2.6,2.5-4.1
	c0.6-1.8,0.9-3.6,1-5.4c0.1-2,0.6-3.9,1.5-5.6c0.7-1.3,1.7-2.4,3-3.1c1.2-0.7,2.7-0.3,3.4,0.9c0,0,0,0.1,0.1,0.1
	C75.1,55.2,75.5,57.3,75.2,59.3z"/>
<path d="M140.9,51c-5.5-8.5-14.3-12.2-22.6-9.9s-13.7,10.5-13.7,23.4c0.3,9.7,5.7,18.6,14.3,23.3c10.6,6.1,21.7,1.9,25.7-9.6
	C147.9,68.5,146.3,59.5,140.9,51z M127.6,70.9c-0.2,0.1-0.3,0.1-0.5,0.2c-2.1,0.5-4.2,0.2-6.1-0.8c-2-1-3.7-2.4-5-4.2
	c-1.7-2.2-2.7-4.9-3-7.7c-0.2-2.1,0.2-4.2,1.2-6c0.6-1.2,2.1-1.7,3.3-1.1c0,0,0.1,0,0.1,0.1c1.3,0.7,2.3,1.8,3,3.1
	c0.9,1.7,1.5,3.6,1.6,5.6c0.1,1.8,0.4,3.7,1,5.4c0.5,1.6,1.3,3,2.5,4.1c0.6,0.5,1.3,0.9,2,1.2C127.7,70.8,127.6,70.9,127.6,70.9z
	 M132.6,67.1c-0.6,1.3-2.1,1.8-3.4,1.2c-0.2-0.1-0.4-0.2-0.6-0.4c-0.8-0.7-1.5-1.5-1.9-2.5c-0.9-1.9-1.4-3.9-1.4-6
	c-0.1-1.6-0.4-3.2-0.9-4.7c-0.6-1.8-1.6-3.4-3-4.6c-0.7-0.6-1.5-1.1-2.4-1.4c0,0,0.1-0.1,0.1-0.1l0.2-0.1c1.7-0.5,3.4-0.5,5.1,0.1
	c2.7,0.9,5,2.7,6.6,5.1c1.7,2.3,2.7,5,2.8,7.8C134,63.5,133.5,65.4,132.6,67.1z"/>
<path d="M105.9,87.1c-0.2-1.6-2.1-4-3.3-4.1c-5.2-0.5-10.4-0.5-15.6,0c-1.3,0.1-3.2,2.5-3.4,4c-0.5,3.4,4.4,8.8,8.5,10.8v8.2
	c0,0.7,0.6,1.3,1.3,1.3h2.7c0.7,0,1.3-0.6,1.3-1.3l0,0v-8.2C101.5,95.9,106.4,90.4,105.9,87.1z"/>
<path d="M172,44c0-0.9,0.1-1.8,0.2-2.6c0-0.4,0.4-0.7,0.7-0.6c0.1,0,0.1,0,0.2,0c2.1,0.5,4.1,1.2,6,2.1c2.7,1,4.5,3.7,4.4,6.6
	c0,1.1-0.2,2.2-0.6,3.3c-0.8,2-2,3.8-3.5,5.3c-0.5,0.6-1.1,1.1-1.7,1.5c-1.3,0.8-2.4,1.9-3,3.3c-0.3,0.7-1.5,0.7-2,0.1
	c-0.3-0.3-0.5-0.6-0.7-0.9c-0.5-1-0.7-2.2-0.7-3.3c0-1.4,0-2.8,0.1-4.7C171.6,51.1,171.8,47.6,172,44z M173.8,57.6
	c0.1,0.4,0.2,0.7,0.4,1c0.1,0.2,0.7,0.1,1-0.2c1.1-1,2.3-2,3.4-3.1c1.1-1.1,1.9-2.4,2.4-3.8c0.2-0.5,0.3-1.1,0.3-1.6
	c0-1.6-0.8-3.2-2.2-4c-1.2-0.8-2.5-1.3-3.8-1.7c-0.4-0.1-0.8,0.2-0.8,0.5c0,0,0,0,0,0c-0.2,3.6-0.5,7.4-0.6,11
	C173.8,56.3,173.7,56.9,173.8,57.6L173.8,57.6z"/>
<path d="M196.3,43c-0.5,0.3-1.1,0.5-1.7,0.7c-1.2,0.2-2.5,0.5-3.6,1c-0.3,0.1-0.6,0.4-0.8,0.7c-0.4,1.3-0.4,2.8-0.1,4.1
	c0.1,0.2,0.3,0.4,0.6,0.4c0.7,0,1.5-0.1,2.2-0.2c0.5-0.1,1-0.1,1.5-0.1c0.2,0,0.4,0.2,0.5,0.4c0.1,0.2,0,0.5-0.1,0.7
	c-0.5,0.6-1.1,1-1.9,1.2c-0.8,0.3-1.7,0.5-2.6,0.7c-0.9,0.2-1.1,0.6-1.1,1.7c0,0.9,0,1.8,0.1,2.7c0.1,0.6,0.4,1.2,0.9,1.6
	c0.4,0.4,0.9,0.5,1.4,0.3c1.4-0.4,2.5-1.2,3.3-2.4c0.2-0.3,0.6-1,1-1c0.2,0,0.4,0.1,0.6,0.3c0.5,0.8,0.4,1.7-0.1,2.4
	c-1,1.8-2.8,3.1-4.7,3.6c-0.4,0.1-0.7,0.1-1.1,0c-2-0.1-3.6-1.7-3.7-3.7c-0.2-1.6-0.2-3.3-0.2-4.9c0-0.7-0.2-1.5-0.6-2.1
	c-0.4-0.5-0.4-1.3,0.1-1.8c1.3-1.2,1.1-2.7,0.9-4.2c-0.1-0.2-0.1-0.5-0.2-0.7c-0.2-1.2,0.1-1.8,1.1-2l2.6-0.5
	c1.4-0.3,2.7-0.5,4.1-0.7c0.4,0,0.7,0.1,1,0.2c0.3,0.1,0.6,0.4,0.7,0.8C196.6,42.5,196.5,42.8,196.3,43z"/>
<path d="M201.5,45.7c0.5-1,1.3-1.9,2.2-2.6c0.4-0.3,0.9-0.4,1.4-0.4c0.7,0,1.3,0.3,1.7,0.8c0.2,0.3,0.3,0.6,0.2,0.9
	c-0.1,0.4-0.5,0.7-0.9,0.7c-0.8,0-1.5,0.4-1.9,1.1c-1.6,2.5-2.5,5.3-2.6,8.3c0,0.5,0,1,0.1,1.5c0.1,1.2,0.8,2.2,1.9,2.7
	c0.5,0.3,1,0.4,1.5,0.4c1.2-0.2,2.4-0.6,3.4-1.3c0.9-0.5,1.7-1,2.6-1.5c0.2-0.1,0.5-0.1,0.7,0.1c0.1,0.2,0.2,0.4,0.1,0.6
	c-0.4,0.7-0.9,1.4-1.5,2c-1.5,1.6-3.6,2.6-5.8,2.7c-2.1,0-4-1.2-4.9-3.1c-0.6-1.4-0.9-2.9-0.8-4.4C199.1,51.2,200,48.3,201.5,45.7z"
	/>
<path d="M213.7,54.9c1-3.4,2.2-6.8,3.2-10.1c0.2-0.6,0.5-1.2,0.8-1.7c0.4-0.4,0.9-0.4,1.4-0.2c0.3,0.3,0.5,0.6,0.7,0.9
	c0.5,1.2,1,2.3,1.6,3.4c0.2,0.3,0.3,0.7,0.2,1c-0.1,1.4,0,2.8,0.4,4.2c0.4,2.5,0.8,5,1.2,7.5c0,0.2,0,0.5,0,0.7
	c-0.1,0.4-0.3,0.7-0.6,0.9c-0.4,0-0.7,0-1-0.2c-0.3-0.2-0.5-0.5-0.7-0.9c-0.3-0.7-0.5-1.4-0.7-2.2c-0.1-0.3-0.3-0.5-0.6-0.5
	c-1.3,0-2.5,0.2-3.7,0.6c-0.3,0.2-0.6,0.5-0.7,0.8c-0.3,0.9-0.6,2-0.9,2.9c-0.1,0.2-0.2,0.5-0.4,0.6c-0.2,0.2-0.4,0.3-0.7,0.3
	c-0.5-0.1-0.9-0.5-1-1c0-0.6,0-1.2,0.1-1.7C212.7,58.4,213.1,56.7,213.7,54.9z M218.9,50.5c-0.1-0.4-0.4-0.3-0.6,0
	c-0.8,1.3-1.3,2.7-1.5,4.2c-0.1,0.6,0.4,0.7,0.7,0.7c0.5,0.1,1,0.1,1.5,0c0.3-0.1,0.7-0.3,0.7-0.6C219.6,53.3,219.3,51.9,218.9,50.5
	L218.9,50.5z"/>
<path d="M235.5,51.9c0.6-0.2,1.3,0.1,1.7,0.6c0.1,0.2,0.1,0.5,0,0.7c-0.1,0.2-0.3,0.4-0.5,0.5c-0.8,0.3-1.6,0.6-2.5,0.9
	c-0.7,0.2-1.5,0.3-2.2,0.5c-1.1,0.1-1.9,1-1.9,2.1c-0.1,1-0.2,2-0.3,3c0,0.4-0.1,0.8-0.3,1.1c-0.2,0.3-0.5,0.6-0.8,0.7
	c-0.5,0.1-1-0.2-1.2-0.6c-0.2-0.3-0.4-0.7-0.4-1c-0.1-0.6-0.1-1.3-0.1-1.9c0.1-1.3-0.2-2.5-0.8-3.7c-0.3-0.5-0.2-1,0.1-1.5
	c0.5-0.8,0.7-1.7,0.6-2.5c0-2,0-4.1,0-6.1c0-1.2,0.3-1.6,1.4-1.8c0.6,0,1.2-0.3,1.7-0.7c0.6-0.7,1.3-1.2,2.2-1.5
	c1.1-0.5,2.3-0.2,3.1,0.7c0.6,0.7,0.7,1.7,0.3,2.5c-0.2,0.5-0.8,0.7-1.3,0.5c-0.1,0-0.2-0.1-0.3-0.2c-0.2-0.2-0.3-0.4-0.5-0.6
	c-0.4-0.3-1-0.3-1.3,0.1c-0.5,0.5-0.9,1.2-1,2c-0.4,2-0.4,4-0.2,6.1c0,0.2,0.3,0.4,0.5,0.5c0.3,0.1,0.6,0.2,0.9,0.1
	C233.2,52.3,234.4,52,235.5,51.9z"/>
<path d="M248.6,51.9c0.6-0.2,1.3,0.1,1.7,0.6c0.1,0.2,0.2,0.5,0.1,0.7c-0.1,0.2-0.3,0.4-0.5,0.5c-0.8,0.3-1.6,0.6-2.5,0.9
	c-0.7,0.2-1.5,0.3-2.2,0.5c-1.1,0.1-1.9,1-1.9,2.1c-0.1,1-0.2,2-0.3,3c0,0.4-0.1,0.8-0.3,1.1c-0.2,0.3-0.5,0.6-0.8,0.7
	c-0.5,0.1-1-0.2-1.2-0.6c-0.2-0.3-0.4-0.7-0.4-1c-0.1-0.6-0.1-1.3-0.1-1.9c0.1-1.3-0.2-2.5-0.8-3.7c-0.3-0.5-0.2-1,0.1-1.5
	c0.5-0.8,0.7-1.7,0.6-2.5c0-2,0-4.1,0-6.1c0-1.2,0.3-1.6,1.4-1.8c0.6,0,1.2-0.3,1.7-0.7c0.6-0.7,1.3-1.2,2.2-1.5
	c1.1-0.5,2.3-0.2,3.1,0.7c0.6,0.7,0.7,1.7,0.3,2.5c-0.2,0.5-0.8,0.7-1.3,0.5c-0.1,0-0.2-0.1-0.3-0.2c-0.2-0.2-0.3-0.4-0.5-0.6
	c-0.4-0.3-1-0.3-1.4,0.1c-0.5,0.5-0.9,1.2-1,2c-0.4,2-0.5,4-0.2,6.1c0,0.2,0.3,0.4,0.5,0.5c0.3,0.1,0.6,0.2,0.9,0.1
	C246.3,52.3,247.4,52,248.6,51.9z"/>
<path d="M262.6,43c-0.5,0.3-1.1,0.5-1.7,0.7c-1.2,0.2-2.5,0.5-3.6,1c-0.3,0.1-0.6,0.4-0.8,0.7c-0.4,1.3-0.4,2.8-0.1,4.1
	c0.1,0.2,0.3,0.4,0.6,0.4c0.7,0,1.5-0.1,2.2-0.2c0.5-0.1,1-0.1,1.5-0.1c0.2,0,0.4,0.2,0.5,0.4c0.1,0.2,0.1,0.5-0.1,0.7
	c-0.5,0.6-1.1,1-1.9,1.2c-0.8,0.3-1.7,0.5-2.6,0.7c-0.9,0.2-1.1,0.6-1.1,1.7c0,0.9,0,1.8,0.1,2.7c0.1,0.6,0.4,1.2,0.9,1.6
	c0.4,0.4,0.9,0.5,1.4,0.3c1.3-0.4,2.5-1.2,3.3-2.4c0.2-0.3,0.6-1,1-1c0.2,0,0.4,0.1,0.6,0.3c0.4,0.8,0.4,1.7-0.1,2.4
	c-1,1.8-2.8,3.1-4.7,3.6c-0.4,0.1-0.7,0.1-1.1,0c-2-0.1-3.6-1.7-3.7-3.7c-0.2-1.6-0.2-3.3-0.2-4.9c0-0.7-0.2-1.5-0.6-2.1
	c-0.4-0.5-0.4-1.3,0.1-1.8c1.3-1.2,1.1-2.7,1-4.2c0-0.2-0.2-0.5-0.2-0.7c-0.2-1.2,0.1-1.8,1.1-2L257,42c1.4-0.3,2.7-0.5,4.1-0.7
	c0.4,0,0.7,0.1,1,0.2c0.3,0.1,0.6,0.4,0.7,0.8C262.9,42.5,262.8,42.8,262.6,43z"/>
<path d="M265.8,44.2c0-0.4,0.1-0.8,0.2-1.1c0.2-0.5,0.7-0.8,1.3-0.8c0.5,0.1,0.9,0.5,1,0.9c0.1,0.4,0.1,0.7,0.1,1.1
	c-0.4,3.4-0.5,6.8-0.3,10.2c0,1.9,0.4,3.8,1,5.6c0.2,0.4,0.2,0.9,0,1.3c-0.2,0.2-0.4,0.3-0.7,0.3c-0.2,0-0.5-0.1-0.7-0.2
	c-0.3-0.2-0.6-0.5-0.7-0.9c-0.7-1.4-1.1-2.8-1.2-4.3c-0.1-2.1-0.2-4.1-0.2-5.5C265.7,48.2,265.7,46.2,265.8,44.2z"/>
<path d="M273.3,44.5c0.4-0.5,1.1-0.7,1.6-0.3c0.4,0.3,0.8,0.7,1,1.1c0.9,1.7,1.8,3.3,2.7,5c0.8,1.7,1.7,3.4,2.8,5
	c0.1,0.2,0.4,0.3,0.6,0.3c0.2,0,0.5-0.2,0.6-0.4c0.3-0.6,0.4-1.2,0.5-1.8c0.3-2.5,0.4-5,0.5-7.6c0.1-1.1,0.1-2.3,0.1-3.4
	c0.1-0.5,0.5-0.9,1-0.9c0.5,0.1,0.9,0.4,1.1,0.8c0.1,0.5,0.2,1,0.2,1.5c0.1,3.8-0.2,7.6-0.9,11.3c-0.1,1-0.4,2-0.8,2.9
	c-0.2,0.3-0.4,0.7-0.6,0.9c-0.5,0.5-1.2,0.6-1.8,0.4c-0.9-0.5-1.7-1.1-2.3-1.9c-0.7-1-1.4-2.1-2.1-3.2c-0.5-0.8-1-1.7-1.5-2.6
	c-0.1-0.2-0.6-0.2-0.6,0.1c-0.1,0.6-0.3,1.2-0.3,1.9c-0.3,2.3-0.6,4.5-0.9,6.8c-0.1,0.4-0.2,0.7-0.5,1c-0.3,0.3-0.7,0.4-1,0.2
	c-0.2-0.1-0.4-0.2-0.6-0.4c-0.1-0.2-0.2-0.5-0.2-0.7c0-1,0-2,0-3c0.1-1.6,0.2-3.3,0.3-5c0.2-2.2,0.3-4.3,0.6-6.4
	C273,45.5,273.1,45,273.3,44.5z"/>
<path d="M290.3,54.9c1-3.4,2.1-6.8,3.2-10.1c0.2-0.6,0.5-1.2,0.8-1.7c0.4-0.4,0.9-0.4,1.4-0.2c0.3,0.3,0.5,0.6,0.7,0.9
	c0.5,1.2,1,2.3,1.6,3.4c0.2,0.3,0.3,0.7,0.2,1c-0.1,1.4,0.1,2.8,0.4,4.2c0.4,2.5,0.8,5,1.2,7.5c0,0.2,0,0.5,0,0.7
	c0,0.4-0.3,0.7-0.6,0.9c-0.4,0-0.7,0-1-0.2c-0.3-0.2-0.5-0.5-0.7-0.9c-0.3-0.7-0.5-1.4-0.7-2.2c-0.1-0.3-0.3-0.5-0.6-0.5
	c-1.3,0-2.5,0.2-3.7,0.6c-0.3,0.2-0.6,0.5-0.7,0.8c-0.3,0.9-0.6,2-0.8,2.9c-0.1,0.2-0.2,0.5-0.4,0.6c-0.2,0.2-0.4,0.3-0.7,0.3
	c-0.5-0.1-0.9-0.5-1-1c0-0.6,0-1.2,0.1-1.7C289.3,58.4,289.7,56.7,290.3,54.9z M295.6,50.5c-0.1-0.4-0.4-0.3-0.6,0
	c-0.8,1.3-1.3,2.7-1.5,4.2c-0.1,0.6,0.4,0.7,0.7,0.7c0.5,0.1,1,0.1,1.5,0c0.3-0.1,0.7-0.3,0.7-0.6C296.2,53.3,296,51.9,295.6,50.5
	L295.6,50.5z"/>
<path d="M315.7,43.2c0.2,0.1,0.4,0.2,0.4,0.5c0,0.2-0.1,0.5-0.3,0.6c-0.5,0.3-1.1,0.5-1.7,0.7c-4.2,0.5-3.9,0.7-4.2,4.7
	c-0.2,3.2-0.1,6.4,0.2,9.5c0.1,0.8,0,1.5-0.1,2.3c-0.2,0.4-0.6,0.7-1.1,0.8c-0.4,0-0.7-0.3-0.9-0.6c-0.5-1.3-0.8-2.7-0.8-4.1
	c-0.2-3.4-0.1-6.9,0.2-10.3c0.1-0.7-0.4-1.1-1.2-1s-1.8,0.1-2.7,0.2c-0.5,0.1-1,0.1-1.5,0.1c-0.3,0-0.5-0.1-0.7-0.2
	c-0.5-0.2-0.8-0.7-0.8-1.2c0.1-0.5,0.4-0.9,0.9-1.1c0.4,0,0.7-0.1,1.1-0.1c1.1-0.1,2.3-0.2,3.4-0.4c1.1-0.2,2.2-0.7,3.3-0.7
	c0.9,0,1.9,0.1,2.8,0.2C313.7,43,314.7,43.1,315.7,43.2z"/>
<path d="M327.8,43c-0.5,0.3-1.1,0.5-1.7,0.7c-1.2,0.2-2.5,0.5-3.6,1c-0.3,0.1-0.6,0.4-0.8,0.7c-0.4,1.3-0.4,2.8-0.1,4.1
	c0.1,0.2,0.3,0.4,0.6,0.4c0.7,0,1.5-0.1,2.2-0.2c0.5-0.1,1-0.1,1.5-0.1c0.4,0,0.6,0.4,0.6,0.8c0,0.1-0.1,0.3-0.2,0.4
	c-0.5,0.6-1.1,1-1.9,1.2c-0.8,0.3-1.7,0.5-2.6,0.7c-0.8,0.2-1.1,0.6-1.1,1.7c0,0.9,0,1.8,0.1,2.7c0.1,0.6,0.4,1.2,0.9,1.6
	c0.4,0.4,0.9,0.5,1.4,0.3c1.4-0.4,2.5-1.2,3.3-2.4c0.2-0.3,0.6-1,1-1c0.2,0,0.4,0.1,0.6,0.3c0.4,0.8,0.4,1.7-0.1,2.4
	c-1,1.8-2.8,3.1-4.7,3.6c-0.4,0.1-0.7,0.1-1.1,0c-2-0.1-3.6-1.7-3.7-3.7c-0.2-1.6-0.2-3.3-0.2-4.9c0-0.7-0.2-1.5-0.6-2.1
	c-0.4-0.5-0.4-1.3,0.1-1.8c1.3-1.2,1.1-2.7,1-4.2c0-0.2-0.2-0.5-0.2-0.7c-0.2-1.2,0.1-1.8,1.1-2l2.6-0.5c1.3-0.3,2.7-0.5,4.1-0.7
	c0.4,0,0.7,0.1,1,0.2c0.3,0.1,0.6,0.4,0.7,0.8C328.1,42.5,328,42.8,327.8,43z"/>
<path d="M331.4,44c0.1-0.9,0.1-1.8,0.2-2.6c0-0.4,0.4-0.7,0.7-0.6c0.1,0,0.1,0,0.2,0c2.1,0.5,4.1,1.2,6,2.1c2.7,1,4.5,3.7,4.4,6.6
	c0,1.1-0.2,2.2-0.6,3.3c-0.8,2-2,3.8-3.5,5.3c-0.5,0.5-1.1,1.1-1.7,1.5c-1.3,0.7-2.4,1.9-3,3.3c-0.3,0.7-1.5,0.7-2,0.1
	c-0.3-0.3-0.5-0.6-0.7-0.9c-0.5-1-0.7-2.2-0.7-3.3c0-1.4,0-2.8,0.1-4.7C331,51.1,331.2,47.6,331.4,44z M333.2,57.6
	c0,0.4,0.2,0.7,0.4,1c0.1,0.2,0.7,0.1,1-0.2c1.1-1,2.3-2,3.4-3.1c1.1-1.1,1.9-2.4,2.4-3.8c0.2-0.5,0.3-1.1,0.3-1.6
	c0-1.6-0.8-3.1-2.2-4c-1.2-0.8-2.5-1.3-3.8-1.7c-0.4-0.1-0.8,0.2-0.8,0.5c0,0,0,0,0,0c-0.2,3.6-0.5,7.4-0.6,11
	C333.2,56.3,333.2,56.9,333.2,57.6L333.2,57.6z"/>
<path d="M171,73.2h18.5c8.1,0,12.5,5.4,12.5,11.9s-4.4,11.6-12.5,11.6h-8v11.1H171V73.2z M188.1,81.9h-6.6V88h6.6c1.7,0,3-1.4,3-3
	S189.8,81.9,188.1,81.9L188.1,81.9z"/>
<path d="M224,103.3h-13.3l-1.4,4.5H198l12.8-34.6H224l12.8,34.6h-11.4L224,103.3z M213.4,94.6h7.9l-4-12.2L213.4,94.6z"/>
<path d="M249.1,89.2v18.6h-10.5V73.2h10.8l12,17.4V73.2H272v34.6h-10.1L249.1,89.2z"/>
<path d="M277.6,73.2H293c10.9,0,19,6.2,19,17.3s-8.1,17.3-19,17.3h-15.4V73.2z M293,98.6c4.4,0.2,8.2-3.2,8.4-7.6c0-0.2,0-0.4,0-0.6
	c0-4.7-2.7-8.2-8.3-8.2h-5v16.3H293z"/>
<path d="M336.5,103.3h-13.3l-1.4,4.5h-11.4l12.8-34.6h13.2l12.8,34.6h-11.4L336.5,103.3z M325.9,94.6h7.9l-3.9-12.2L325.9,94.6z"/>
</svg>
